<?xml version="1.0" encoding="utf-8"?>
<!-- Generator: Adobe Illustrator 24.0.2, SVG Export Plug-In . SVG Version: 6.00 Build 0)  -->
<svg version="1.1" id="Capa_1" xmlns="http://www.w3.org/2000/svg" xmlns:xlink="http://www.w3.org/1999/xlink" x="0px" y="0px"
	 viewBox="0 0 232.7 51.9" style="enable-background:new 0 0 232.7 51.9;" xml:space="preserve">
<style type="text/css">
	.st0{fill:#13A253;}
	.st1{fill:#282828;}
</style>
<g>
	<polygon class="st0" points="61.7,2.2 84.5,2.2 84.5,7.8 68.4,7.8 68.4,14.3 83.2,14.3 83.2,19.5 68.4,19.5 68.4,27 84.8,27 
		84.8,32.6 61.7,32.6 	"/>
	<path class="st1" d="M135.6,21.2c0,2.3-0.5,3.9-1.4,5c-0.9,1.1-2.6,1.6-4.9,1.6c-1.4,0-2.4-0.2-3.2-0.6c-0.8-0.4-1.4-0.9-1.9-1.5
		c-0.5-0.6-0.7-1.3-0.9-2.1c-0.1-0.8-0.2-1.6-0.2-2.4V2.3h-6.7v18.9c0,4.1,1.1,7.2,3.4,9.2c2.3,2,5.4,3,9.5,3c4.1,0,7.2-1,9.5-3
		c2.3-2,3.5-5.1,3.5-9.2l0-18.9h-6.7V21.2L135.6,21.2z"/>
	<polygon class="st1" points="167.4,22.6 167.3,22.6 154.6,2.3 148,2.3 148,32.6 154.2,32.6 154.2,12.3 154.3,12.3 166.9,32.6 
		173.6,32.6 173.6,2.3 167.4,2.3 	"/>
	<polygon class="st1" points="186.1,2.3 179.5,2.3 179.5,32.6 200.9,32.6 200.9,27 186.1,27 	"/>
	<path class="st1" d="M222,5.5v14.8c0,2.8-0.5,4.7-1.4,5.9c-0.9,1.2-2.4,1.8-4.4,1.8c-1.7,0-3-0.5-3.7-1.6c-0.7-1.1-1.1-2.8-1.1-5
		V5.5h-6.8v16.6c0,1.7,0.1,3.2,0.4,4.6c0.3,1.4,0.8,2.5,1.5,3.5c0.7,1,1.7,1.7,3,2.2c1.3,0.5,2.9,0.8,4.9,0.8c1.3,0,2.5-0.2,3.8-0.7
		l0.3-0.1c1.5-0.7,3-2.1,3.6-3.6h0.2v3.8h6.4v-4.7V5.5L222,5.5L222,5.5z"/>
	<path class="st0" d="M104.4,29.8L104.4,29.8c-0.8,1.2-1.7,2.1-2.9,2.6c-1.2,0.5-2.5,0.8-3.9,0.8c-1.7,0-3.1-0.3-4.4-1
		c-1.2-0.7-2.3-1.5-3.1-2.6c-0.8-1.1-1.4-2.3-1.8-3.8c-0.4-1.4-0.6-2.9-0.6-4.4c0-1.5,0.2-2.9,0.6-4.3c0.4-1.4,1-2.6,1.8-3.6
		c0.8-1,1.8-1.9,3-2.5c1.2-0.6,2.6-1,4.3-1c1.3,0,2.5,0.3,3.7,0.8c1.2,0.6,2.1,1.4,2.8,2.5l0.1,0V2.2h6.7v30.4h-6.4L104.4,29.8
		L104.4,29.8z M104.3,21.5c0-0.9-0.1-1.7-0.3-2.6c-0.2-0.9-0.5-1.6-0.9-2.2c-0.4-0.6-0.9-1.2-1.6-1.6c-0.7-0.4-1.5-0.6-2.4-0.6
		c-1,0-1.8,0.2-2.5,0.6c-0.7,0.4-1.2,0.9-1.6,1.6c-0.4,0.7-0.7,1.4-0.9,2.2c-0.2,0.8-0.3,1.7-0.3,2.6c0,0.9,0.1,1.7,0.3,2.6
		c0.2,0.9,0.5,1.6,1,2.3c0.4,0.7,1,1.2,1.7,1.6c0.7,0.4,1.5,0.6,2.4,0.6c1,0,1.8-0.2,2.5-0.6c0.7-0.4,1.2-0.9,1.6-1.6
		c0.4-0.7,0.7-1.4,0.9-2.3C104.2,23.3,104.3,22.5,104.3,21.5L104.3,21.5z"/>
	<polygon class="st1" points="61.9,40.9 66.6,40.9 66.6,41.7 62.8,41.7 62.8,43.8 66.3,43.8 66.3,44.6 62.8,44.6 62.8,47 66.6,47 
		66.6,47.7 61.9,47.7 	"/>
	<path class="st1" d="M72,47.7h-0.8v-0.7h0c-0.1,0.3-0.3,0.5-0.6,0.6c-0.3,0.1-0.6,0.2-1,0.2c-0.4,0-0.7-0.1-1-0.2
		c-0.3-0.1-0.5-0.3-0.7-0.6c-0.2-0.2-0.3-0.5-0.4-0.8c-0.1-0.3-0.1-0.7-0.1-1c0-0.3,0-0.7,0.1-1c0.1-0.3,0.2-0.6,0.4-0.8
		c0.2-0.2,0.4-0.4,0.7-0.6c0.3-0.1,0.6-0.2,1-0.2c0.1,0,0.3,0,0.4,0c0.1,0,0.3,0.1,0.4,0.1c0.1,0.1,0.3,0.1,0.4,0.2
		c0.1,0.1,0.2,0.2,0.3,0.4h0v-2.6H72L72,47.7L72,47.7z M68.2,45.3c0,0.2,0,0.5,0.1,0.7c0.1,0.2,0.2,0.4,0.3,0.6
		c0.1,0.2,0.3,0.3,0.5,0.4c0.2,0.1,0.4,0.2,0.7,0.2c0.3,0,0.5-0.1,0.7-0.2c0.2-0.1,0.4-0.3,0.5-0.4c0.1-0.2,0.2-0.4,0.3-0.6
		c0.1-0.2,0.1-0.4,0.1-0.7c0-0.2,0-0.5-0.1-0.7c-0.1-0.2-0.1-0.4-0.3-0.6c-0.1-0.2-0.3-0.3-0.5-0.4c-0.2-0.1-0.4-0.2-0.7-0.2
		c-0.3,0-0.5,0.1-0.7,0.2c-0.2,0.1-0.3,0.3-0.5,0.4c-0.1,0.2-0.2,0.4-0.2,0.6C68.2,44.8,68.2,45.1,68.2,45.3L68.2,45.3z"/>
	<path class="st1" d="M74.2,41.9h-0.8v-1h0.8V41.9z M73.3,42.8h0.8v5h-0.8V42.8z"/>
	<path class="st1" d="M76.6,42.8h1v0.7h-1v3.1l0,0.2l0.1,0.1l0.2,0.1c0.1,0,0.2,0,0.3,0h0.4v0.7h-0.6c-0.2,0-0.4,0-0.5,0
		c-0.2,0-0.3-0.1-0.4-0.2c-0.1-0.1-0.2-0.2-0.2-0.3c0-0.1-0.1-0.3-0.1-0.6v-3.2h-0.8v-0.7h0.8v-1.5h0.8L76.6,42.8L76.6,42.8z"/>
	<path class="st1" d="M78.2,45.3c0-0.4,0.1-0.7,0.2-1c0.1-0.3,0.3-0.6,0.5-0.8c0.2-0.2,0.5-0.4,0.8-0.6c0.3-0.1,0.7-0.2,1-0.2
		c0.4,0,0.7,0.1,1,0.2c0.3,0.1,0.6,0.3,0.8,0.6c0.2,0.2,0.4,0.5,0.5,0.8c0.1,0.3,0.2,0.7,0.2,1c0,0.4-0.1,0.7-0.2,1
		c-0.1,0.3-0.3,0.6-0.5,0.8c-0.2,0.2-0.5,0.4-0.8,0.6c-0.3,0.1-0.6,0.2-1,0.2c-0.4,0-0.7-0.1-1-0.2c-0.3-0.1-0.5-0.3-0.8-0.6
		c-0.2-0.2-0.4-0.5-0.5-0.8C78.2,46,78.2,45.6,78.2,45.3L78.2,45.3z M79,45.3c0,0.3,0,0.6,0.1,0.8c0.1,0.2,0.2,0.4,0.3,0.6
		c0.1,0.2,0.3,0.3,0.5,0.4c0.2,0.1,0.4,0.1,0.6,0.1c0.2,0,0.4,0,0.6-0.1c0.2-0.1,0.4-0.2,0.5-0.4c0.1-0.2,0.3-0.4,0.3-0.6
		c0.1-0.2,0.1-0.5,0.1-0.8c0-0.3,0-0.6-0.1-0.8c-0.1-0.2-0.2-0.4-0.3-0.6c-0.1-0.2-0.3-0.3-0.5-0.4c-0.2-0.1-0.4-0.1-0.6-0.1
		c-0.2,0-0.4,0-0.6,0.1c-0.2,0.1-0.4,0.2-0.5,0.4c-0.1,0.2-0.2,0.4-0.3,0.6C79.1,44.7,79,45,79,45.3z"/>
	<path class="st1" d="M83.9,42.8h0.8v1h0c0.2-0.4,0.4-0.7,0.7-0.9c0.3-0.2,0.7-0.3,1.1-0.3l0,0.9c-0.3,0-0.6,0-0.8,0.1
		c-0.2,0.1-0.4,0.2-0.6,0.4c-0.1,0.2-0.2,0.4-0.3,0.6c-0.1,0.2-0.1,0.5-0.1,0.8l0,2.2h-0.8L83.9,42.8L83.9,42.8z"/>
	<path class="st1" d="M88,41.9h-0.8v-1H88V41.9z M87.2,42.8H88v5h-0.8V42.8z"/>
	<path class="st1" d="M93.7,47.7c-0.1,0.1-0.3,0.1-0.6,0.1c-0.2,0-0.4-0.1-0.5-0.2c-0.1-0.1-0.2-0.3-0.2-0.6
		c-0.2,0.3-0.5,0.5-0.8,0.6c-0.3,0.1-0.6,0.2-1,0.2c-0.2,0-0.4,0-0.6-0.1c-0.2-0.1-0.4-0.1-0.5-0.2c-0.1-0.1-0.3-0.3-0.3-0.4
		c-0.1-0.2-0.1-0.4-0.1-0.6c0-0.3,0-0.5,0.1-0.7c0.1-0.2,0.2-0.3,0.4-0.4c0.2-0.1,0.3-0.2,0.5-0.3c0.2-0.1,0.4-0.1,0.6-0.2
		c0.2,0,0.4-0.1,0.6-0.1c0.2,0,0.4-0.1,0.5-0.1c0.2,0,0.3-0.1,0.4-0.2c0.1-0.1,0.1-0.2,0.1-0.4c0-0.2,0-0.3-0.1-0.4L92,43.5
		c-0.1-0.1-0.2-0.1-0.4-0.1c-0.1,0-0.3,0-0.4,0c-0.3,0-0.6,0.1-0.9,0.2c-0.2,0.1-0.4,0.4-0.4,0.7l-0.8,0c0-0.3,0.1-0.6,0.2-0.8
		c0.1-0.2,0.3-0.4,0.5-0.5c0.2-0.1,0.4-0.2,0.7-0.3c0.3-0.1,0.5-0.1,0.8-0.1c0.2,0,0.4,0,0.7,0c0.2,0,0.4,0.1,0.6,0.2
		c0.2,0.1,0.3,0.2,0.4,0.4c0.1,0.2,0.2,0.4,0.2,0.7l0,2.6c0,0.2,0,0.3,0,0.4c0,0.1,0.1,0.1,0.2,0.1l0.2,0V47.7L93.7,47.7z
		 M92.4,45.2l-0.3,0.1c-0.1,0-0.2,0.1-0.4,0.1c-0.1,0-0.3,0-0.4,0.1c-0.1,0-0.3,0-0.4,0.1c-0.1,0-0.3,0.1-0.4,0.1
		c-0.1,0-0.2,0.1-0.3,0.2L90,46c-0.1,0.1-0.1,0.2-0.1,0.4c0,0.1,0,0.2,0.1,0.3l0.2,0.2l0.3,0.1c0.1,0,0.2,0,0.4,0
		c0.3,0,0.5,0,0.7-0.1c0.2-0.1,0.4-0.2,0.5-0.3c0.1-0.1,0.2-0.2,0.3-0.4c0.1-0.1,0.1-0.3,0.1-0.4L92.4,45.2L92.4,45.2z"/>
	<polygon class="st1" points="94.5,40.9 95.3,40.9 95.3,47.7 94.5,47.7 	"/>
	<path class="st1" d="M104.9,45.3c0,0.9-0.2,1.5-0.7,2c-0.5,0.4-1.1,0.7-2,0.7c-0.4,0-0.8-0.1-1.2-0.2c-0.3-0.1-0.6-0.3-0.9-0.5
		c-0.2-0.2-0.4-0.5-0.6-0.8c-0.1-0.3-0.2-0.7-0.2-1.2l0-4.4h0.9v4.4c0,0.6,0.2,1.1,0.5,1.4c0.3,0.3,0.8,0.5,1.4,0.5
		c0.6,0,1-0.2,1.3-0.5c0.3-0.3,0.5-0.8,0.5-1.4v-4.4h0.9L104.9,45.3L104.9,45.3z"/>
	<path class="st1" d="M106.2,42.8h0.8v0.8h0c0.2-0.3,0.4-0.5,0.7-0.7c0.3-0.2,0.6-0.2,0.9-0.2c0.3,0,0.6,0,0.8,0.1
		c0.2,0.1,0.4,0.2,0.5,0.4c0.1,0.2,0.2,0.4,0.3,0.6c0.1,0.2,0.1,0.5,0.1,0.7v3.3h-0.8v-3.4c0-0.3-0.1-0.5-0.3-0.7
		c-0.2-0.2-0.4-0.3-0.7-0.3c-0.3,0-0.5,0-0.6,0.1c-0.2,0.1-0.3,0.2-0.5,0.3c-0.1,0.1-0.2,0.3-0.3,0.5c-0.1,0.2-0.1,0.4-0.1,0.6
		l0,2.8h-0.8L106.2,42.8L106.2,42.8z"/>
	<path class="st1" d="M112.4,41.9h-0.8v-1h0.8V41.9z M111.6,42.8h0.8v5h-0.8V42.8z"/>
	<polygon class="st1" points="115.9,47.7 115.1,47.7 113.2,42.8 114.1,42.8 115.5,46.9 115.5,46.9 116.9,42.8 117.7,42.8 	"/>
	<path class="st1" d="M122.7,46.2c-0.1,0.6-0.4,1-0.7,1.3c-0.4,0.3-0.8,0.4-1.4,0.4c-0.4,0-0.7-0.1-1-0.2c-0.3-0.1-0.5-0.3-0.7-0.5
		c-0.2-0.2-0.3-0.5-0.4-0.8c-0.1-0.3-0.2-0.7-0.2-1c0-0.4,0.1-0.7,0.2-1c0.1-0.3,0.3-0.6,0.5-0.8c0.2-0.2,0.5-0.4,0.7-0.5
		c0.3-0.1,0.6-0.2,0.9-0.2c0.4,0,0.8,0.1,1.1,0.3c0.3,0.2,0.5,0.4,0.7,0.7c0.2,0.3,0.3,0.6,0.4,0.9c0.1,0.3,0.1,0.6,0.1,1h-3.7
		c0,0.2,0,0.4,0.1,0.6c0.1,0.2,0.2,0.4,0.3,0.5c0.1,0.2,0.3,0.3,0.5,0.4c0.2,0.1,0.4,0.1,0.7,0.1c0.3,0,0.6-0.1,0.8-0.2
		c0.2-0.2,0.4-0.4,0.4-0.7H122.7L122.7,46.2z M121.9,44.8c0-0.2-0.1-0.4-0.1-0.5c-0.1-0.2-0.2-0.3-0.3-0.4c-0.1-0.1-0.3-0.2-0.4-0.3
		c-0.2-0.1-0.4-0.1-0.6-0.1c-0.2,0-0.4,0-0.6,0.1c-0.2,0.1-0.3,0.2-0.4,0.3c-0.1,0.1-0.2,0.3-0.3,0.4c-0.1,0.2-0.1,0.3-0.1,0.5
		L121.9,44.8L121.9,44.8z"/>
	<path class="st1" d="M123.6,42.8h0.8v1h0c0.2-0.4,0.4-0.7,0.7-0.9c0.3-0.2,0.7-0.3,1.1-0.3l0,0.9c-0.3,0-0.6,0-0.8,0.1
		c-0.2,0.1-0.4,0.2-0.6,0.4c-0.1,0.2-0.2,0.4-0.3,0.6c-0.1,0.2-0.1,0.5-0.1,0.8l0,2.2h-0.8V42.8z"/>
	<path class="st1" d="M127.4,46.2c0,0.2,0,0.3,0.1,0.5c0.1,0.1,0.2,0.2,0.3,0.3c0.1,0.1,0.3,0.1,0.4,0.2c0.2,0,0.3,0.1,0.5,0.1
		c0.1,0,0.3,0,0.4,0c0.1,0,0.3-0.1,0.4-0.1l0.3-0.2c0.1-0.1,0.1-0.2,0.1-0.4c0-0.2-0.1-0.3-0.1-0.4c-0.1-0.1-0.2-0.2-0.4-0.2
		c-0.2-0.1-0.3-0.1-0.5-0.2c-0.2,0-0.4-0.1-0.6-0.1c-0.2,0-0.4-0.1-0.6-0.2c-0.2-0.1-0.4-0.1-0.5-0.3c-0.1-0.1-0.3-0.2-0.4-0.4
		c-0.1-0.2-0.1-0.4-0.1-0.6c0-0.2,0.1-0.5,0.2-0.6c0.1-0.2,0.3-0.3,0.4-0.4c0.2-0.1,0.4-0.2,0.6-0.2c0.2-0.1,0.4-0.1,0.7-0.1
		c0.3,0,0.5,0,0.8,0.1c0.2,0,0.4,0.1,0.6,0.3c0.2,0.1,0.3,0.3,0.4,0.5c0.1,0.2,0.2,0.5,0.2,0.8l-0.8,0c0-0.2-0.1-0.3-0.1-0.4
		l-0.3-0.3c-0.1-0.1-0.2-0.1-0.4-0.1c-0.1,0-0.3,0-0.4,0c-0.1,0-0.2,0-0.4,0c-0.1,0-0.2,0-0.3,0.1l-0.3,0.2
		c-0.1,0.1-0.1,0.2-0.1,0.3c0,0.1,0,0.3,0.1,0.4c0.1,0.1,0.2,0.2,0.4,0.2c0.2,0.1,0.3,0.1,0.5,0.2c0.2,0,0.4,0.1,0.6,0.1
		c0.2,0,0.4,0.1,0.6,0.2c0.2,0.1,0.4,0.2,0.5,0.3c0.1,0.1,0.3,0.2,0.4,0.4c0.1,0.2,0.1,0.4,0.1,0.6c0,0.3-0.1,0.5-0.2,0.7
		c-0.1,0.2-0.3,0.4-0.5,0.5c-0.2,0.1-0.4,0.2-0.7,0.3c-0.3,0-0.5,0.1-0.8,0.1c-0.3,0-0.6,0-0.8-0.1c-0.2-0.1-0.5-0.2-0.7-0.3
		c-0.2-0.1-0.3-0.3-0.5-0.5c-0.1-0.2-0.2-0.5-0.2-0.8L127.4,46.2L127.4,46.2z"/>
	<path class="st1" d="M132.5,41.9h-0.8v-1h0.8V41.9z M131.7,42.8h0.8v5h-0.8V42.8z"/>
	<path class="st1" d="M138.2,47.7h-0.8v-0.7h0c-0.1,0.3-0.3,0.5-0.6,0.6c-0.3,0.1-0.6,0.2-0.9,0.2c-0.4,0-0.7-0.1-1-0.2
		c-0.3-0.1-0.5-0.3-0.7-0.6c-0.2-0.2-0.3-0.5-0.4-0.8c-0.1-0.3-0.2-0.7-0.2-1c0-0.3,0-0.7,0.1-1c0.1-0.3,0.2-0.6,0.4-0.8
		c0.2-0.2,0.4-0.4,0.7-0.6c0.3-0.1,0.6-0.2,1-0.2c0.1,0,0.3,0,0.4,0c0.1,0,0.3,0.1,0.4,0.1c0.2,0.1,0.3,0.1,0.4,0.2
		c0.1,0.1,0.2,0.2,0.3,0.4h0v-2.6h0.8V47.7L138.2,47.7z M134.4,45.3c0,0.2,0,0.5,0.1,0.7c0.1,0.2,0.2,0.4,0.3,0.6
		c0.1,0.2,0.3,0.3,0.5,0.4c0.2,0.1,0.4,0.2,0.7,0.2c0.3,0,0.5-0.1,0.7-0.2c0.2-0.1,0.4-0.3,0.5-0.4c0.1-0.2,0.2-0.4,0.3-0.6
		c0.1-0.2,0.1-0.4,0.1-0.7c0-0.2,0-0.5-0.1-0.7c-0.1-0.2-0.2-0.4-0.3-0.6c-0.1-0.2-0.3-0.3-0.5-0.4c-0.2-0.1-0.4-0.2-0.7-0.2
		c-0.3,0-0.5,0.1-0.7,0.2c-0.2,0.1-0.3,0.3-0.5,0.4c-0.1,0.2-0.2,0.4-0.2,0.6C134.4,44.8,134.4,45.1,134.4,45.3L134.4,45.3z"/>
	<path class="st1" d="M143.9,47.7c-0.1,0.1-0.3,0.1-0.6,0.1c-0.2,0-0.4-0.1-0.5-0.2c-0.1-0.1-0.2-0.3-0.2-0.6
		c-0.2,0.3-0.5,0.5-0.8,0.6c-0.3,0.1-0.6,0.2-1,0.2c-0.2,0-0.4,0-0.6-0.1c-0.2-0.1-0.4-0.1-0.5-0.2c-0.1-0.1-0.3-0.3-0.3-0.4
		c-0.1-0.2-0.1-0.4-0.1-0.6c0-0.3,0.1-0.5,0.1-0.7c0.1-0.2,0.2-0.3,0.4-0.4c0.2-0.1,0.3-0.2,0.5-0.3c0.2-0.1,0.4-0.1,0.6-0.2
		c0.2,0,0.4-0.1,0.6-0.1c0.2,0,0.4-0.1,0.5-0.1c0.2,0,0.3-0.1,0.4-0.2c0.1-0.1,0.1-0.2,0.1-0.4c0-0.2,0-0.3-0.1-0.4l-0.3-0.2
		c-0.1-0.1-0.2-0.1-0.4-0.1c-0.1,0-0.3,0-0.4,0c-0.3,0-0.6,0.1-0.9,0.2c-0.2,0.1-0.4,0.4-0.4,0.7l-0.8,0c0-0.3,0.1-0.6,0.2-0.8
		c0.1-0.2,0.3-0.4,0.5-0.5c0.2-0.1,0.4-0.2,0.7-0.3c0.3-0.1,0.5-0.1,0.8-0.1c0.2,0,0.5,0,0.7,0c0.2,0,0.4,0.1,0.6,0.2
		c0.2,0.1,0.3,0.2,0.4,0.4c0.1,0.2,0.2,0.4,0.2,0.7v2.6c0,0.2,0,0.3,0,0.4c0,0.1,0.1,0.1,0.2,0.1l0.3,0L143.9,47.7L143.9,47.7z
		 M142.6,45.2c-0.1,0.1-0.2,0.1-0.3,0.1c-0.1,0-0.2,0.1-0.4,0.1c-0.1,0-0.3,0-0.4,0.1c-0.1,0-0.3,0-0.4,0.1c-0.1,0-0.3,0.1-0.4,0.1
		c-0.1,0-0.2,0.1-0.3,0.2l-0.2,0.3c-0.1,0.1-0.1,0.2-0.1,0.4c0,0.1,0,0.2,0.1,0.3l0.2,0.2l0.3,0.1c0.1,0,0.2,0,0.4,0
		c0.3,0,0.5,0,0.7-0.1c0.2-0.1,0.3-0.2,0.5-0.3c0.1-0.1,0.2-0.2,0.3-0.4c0.1-0.1,0.1-0.3,0.1-0.4V45.2L142.6,45.2z"/>
	<path class="st1" d="M149.1,47.7h-0.8v-0.7h0c-0.1,0.3-0.3,0.5-0.6,0.6c-0.3,0.1-0.6,0.2-1,0.2c-0.4,0-0.7-0.1-1-0.2
		c-0.3-0.1-0.5-0.3-0.7-0.6c-0.2-0.2-0.3-0.5-0.4-0.8c-0.1-0.3-0.1-0.7-0.1-1c0-0.3,0-0.7,0.1-1c0.1-0.3,0.2-0.6,0.4-0.8
		c0.2-0.2,0.4-0.4,0.7-0.6c0.3-0.1,0.6-0.2,1-0.2c0.1,0,0.3,0,0.4,0c0.1,0,0.3,0.1,0.4,0.1c0.1,0.1,0.3,0.1,0.4,0.2
		c0.1,0.1,0.2,0.2,0.3,0.4h0v-2.6h0.8L149.1,47.7L149.1,47.7z M145.3,45.3c0,0.2,0,0.5,0.1,0.7c0.1,0.2,0.2,0.4,0.3,0.6
		c0.1,0.2,0.3,0.3,0.5,0.4c0.2,0.1,0.4,0.2,0.7,0.2c0.3,0,0.5-0.1,0.7-0.2c0.2-0.1,0.4-0.3,0.5-0.4c0.1-0.2,0.2-0.4,0.3-0.6
		c0.1-0.2,0.1-0.4,0.1-0.7c0-0.2,0-0.5-0.1-0.7c-0.1-0.2-0.2-0.4-0.3-0.6c-0.1-0.2-0.3-0.3-0.5-0.4c-0.2-0.1-0.4-0.2-0.7-0.2
		c-0.3,0-0.5,0.1-0.7,0.2c-0.2,0.1-0.3,0.3-0.5,0.4c-0.1,0.2-0.2,0.4-0.2,0.6C145.3,44.8,145.3,45.1,145.3,45.3L145.3,45.3z"/>
	<polygon class="st1" points="153.2,40.9 154.1,40.9 157.7,46.5 157.8,46.5 157.8,40.9 158.6,40.9 158.6,47.7 157.6,47.7 154,42.2 
		154,42.2 154,47.7 153.2,47.7 	"/>
	<path class="st1" d="M164.4,47.7c-0.1,0.1-0.3,0.1-0.6,0.1c-0.2,0-0.4-0.1-0.5-0.2c-0.1-0.1-0.2-0.3-0.2-0.6
		c-0.2,0.3-0.5,0.5-0.8,0.6c-0.3,0.1-0.6,0.2-1,0.2c-0.2,0-0.4,0-0.6-0.1c-0.2-0.1-0.4-0.1-0.5-0.2c-0.1-0.1-0.3-0.3-0.3-0.4
		c-0.1-0.2-0.1-0.4-0.1-0.6c0-0.3,0.1-0.5,0.1-0.7c0.1-0.2,0.2-0.3,0.4-0.4c0.2-0.1,0.3-0.2,0.5-0.3c0.2-0.1,0.4-0.1,0.6-0.2
		c0.2,0,0.4-0.1,0.6-0.1c0.2,0,0.4-0.1,0.5-0.1c0.2,0,0.3-0.1,0.4-0.2c0.1-0.1,0.1-0.2,0.1-0.4c0-0.2,0-0.3-0.1-0.4l-0.3-0.2
		c-0.1-0.1-0.2-0.1-0.4-0.1c-0.1,0-0.3,0-0.4,0c-0.3,0-0.6,0.1-0.9,0.2c-0.2,0.1-0.4,0.4-0.4,0.7l-0.8,0c0-0.3,0.1-0.6,0.2-0.8
		c0.1-0.2,0.3-0.4,0.5-0.5c0.2-0.1,0.4-0.2,0.7-0.3c0.2-0.1,0.5-0.1,0.8-0.1c0.2,0,0.5,0,0.7,0c0.2,0,0.4,0.1,0.6,0.2
		c0.2,0.1,0.3,0.2,0.4,0.4c0.1,0.2,0.2,0.4,0.2,0.7v2.6c0,0.2,0,0.3,0,0.4c0,0.1,0.1,0.1,0.2,0.1l0.2,0V47.7L164.4,47.7z M163,45.2
		l-0.3,0.1c-0.1,0-0.2,0.1-0.4,0.1c-0.1,0-0.3,0-0.4,0.1c-0.1,0-0.3,0-0.4,0.1c-0.1,0-0.3,0.1-0.4,0.1c-0.1,0-0.2,0.1-0.3,0.2
		l-0.2,0.3c-0.1,0.1-0.1,0.2-0.1,0.4c0,0.1,0,0.2,0.1,0.3l0.2,0.2l0.3,0.1c0.1,0,0.2,0,0.4,0c0.3,0,0.5,0,0.7-0.1
		c0.2-0.1,0.3-0.2,0.5-0.3c0.1-0.1,0.2-0.2,0.3-0.4c0.1-0.1,0.1-0.3,0.1-0.4L163,45.2L163,45.2z"/>
	<path class="st1" d="M168.5,44.4c-0.1-0.3-0.2-0.6-0.4-0.7c-0.2-0.2-0.5-0.3-0.8-0.3c-0.3,0-0.5,0.1-0.7,0.2
		c-0.2,0.1-0.4,0.3-0.5,0.4c-0.1,0.2-0.2,0.4-0.3,0.6c0,0.2-0.1,0.5-0.1,0.7c0,0.2,0,0.5,0.1,0.7c0.1,0.2,0.1,0.4,0.3,0.6
		c0.1,0.2,0.3,0.3,0.4,0.4c0.2,0.1,0.4,0.2,0.7,0.2c0.4,0,0.7-0.1,0.9-0.3c0.2-0.2,0.4-0.5,0.4-0.9l0.8,0c-0.1,0.6-0.3,1.1-0.7,1.4
		c-0.4,0.3-0.9,0.5-1.5,0.5c-0.4,0-0.7-0.1-1-0.2c-0.3-0.1-0.5-0.3-0.7-0.5c-0.2-0.2-0.3-0.5-0.4-0.8c-0.1-0.3-0.1-0.7-0.1-1
		c0-0.4,0-0.7,0.1-1c0.1-0.3,0.2-0.6,0.4-0.8c0.2-0.2,0.4-0.4,0.7-0.6c0.3-0.1,0.6-0.2,1-0.2c0.3,0,0.5,0,0.8,0.1
		c0.2,0.1,0.5,0.2,0.7,0.3c0.2,0.1,0.3,0.3,0.5,0.5c0.1,0.2,0.2,0.5,0.2,0.8L168.5,44.4L168.5,44.4z"/>
	<path class="st1" d="M171.2,41.9h-0.8v-1h0.8V41.9z M170.3,42.8h0.8v5h-0.8V42.8z"/>
	<path class="st1" d="M172.2,45.3c0-0.4,0-0.7,0.1-1c0.1-0.3,0.3-0.6,0.5-0.8c0.2-0.2,0.5-0.4,0.8-0.6c0.3-0.1,0.6-0.2,1-0.2
		c0.4,0,0.7,0.1,1,0.2c0.3,0.1,0.6,0.3,0.8,0.6c0.2,0.2,0.4,0.5,0.5,0.8c0.1,0.3,0.2,0.7,0.2,1c0,0.4-0.1,0.7-0.2,1
		c-0.1,0.3-0.3,0.6-0.5,0.8c-0.2,0.2-0.4,0.4-0.8,0.6c-0.3,0.1-0.6,0.2-1,0.2c-0.4,0-0.7-0.1-1-0.2c-0.3-0.1-0.5-0.3-0.8-0.6
		c-0.2-0.2-0.4-0.5-0.5-0.8C172.2,46,172.2,45.6,172.2,45.3z M173,45.3c0,0.3,0,0.6,0.1,0.8c0.1,0.2,0.2,0.4,0.3,0.6
		c0.1,0.2,0.3,0.3,0.5,0.4c0.2,0.1,0.4,0.1,0.6,0.1c0.2,0,0.4,0,0.6-0.1c0.2-0.1,0.4-0.2,0.5-0.4c0.1-0.2,0.2-0.4,0.3-0.6
		c0.1-0.2,0.1-0.5,0.1-0.8c0-0.3,0-0.6-0.1-0.8c-0.1-0.2-0.2-0.4-0.3-0.6c-0.1-0.2-0.3-0.3-0.5-0.4c-0.2-0.1-0.4-0.1-0.6-0.1
		c-0.2,0-0.4,0-0.6,0.1c-0.2,0.1-0.4,0.2-0.5,0.4c-0.1,0.2-0.2,0.4-0.3,0.6C173.1,44.7,173,45,173,45.3z"/>
	<path class="st1" d="M177.9,42.8h0.8v0.8h0c0.2-0.3,0.4-0.5,0.7-0.7c0.3-0.2,0.6-0.2,0.9-0.2c0.3,0,0.6,0,0.8,0.1
		c0.2,0.1,0.4,0.2,0.5,0.4c0.1,0.2,0.2,0.4,0.3,0.6c0.1,0.2,0.1,0.5,0.1,0.7v3.3h-0.8v-3.4c0-0.3-0.1-0.5-0.3-0.7
		c-0.2-0.2-0.4-0.3-0.7-0.3c-0.3,0-0.5,0-0.7,0.1c-0.2,0.1-0.3,0.2-0.5,0.3c-0.1,0.1-0.2,0.3-0.3,0.5c-0.1,0.2-0.1,0.4-0.1,0.6
		l0,2.8h-0.8V42.8L177.9,42.8z"/>
	<path class="st1" d="M187.7,47.7c-0.1,0.1-0.3,0.1-0.6,0.1c-0.2,0-0.4-0.1-0.5-0.2c-0.1-0.1-0.2-0.3-0.2-0.6
		c-0.2,0.3-0.5,0.5-0.8,0.6c-0.3,0.1-0.6,0.2-1,0.2c-0.2,0-0.4,0-0.6-0.1c-0.2-0.1-0.4-0.1-0.5-0.2c-0.1-0.1-0.3-0.3-0.3-0.4
		c-0.1-0.2-0.1-0.4-0.1-0.6c0-0.3,0-0.5,0.1-0.7c0.1-0.2,0.2-0.3,0.4-0.4c0.2-0.1,0.3-0.2,0.5-0.3c0.2-0.1,0.4-0.1,0.6-0.2
		c0.2,0,0.4-0.1,0.6-0.1c0.2,0,0.4-0.1,0.5-0.1c0.2,0,0.3-0.1,0.4-0.2c0.1-0.1,0.1-0.2,0.1-0.4c0-0.2,0-0.3-0.1-0.4l-0.3-0.2
		c-0.1-0.1-0.2-0.1-0.4-0.1c-0.1,0-0.3,0-0.4,0c-0.3,0-0.6,0.1-0.9,0.2c-0.2,0.1-0.4,0.4-0.4,0.7l-0.8,0c0-0.3,0.1-0.6,0.2-0.8
		c0.1-0.2,0.3-0.4,0.5-0.5c0.2-0.1,0.4-0.2,0.7-0.3c0.2-0.1,0.5-0.1,0.8-0.1c0.2,0,0.4,0,0.7,0c0.2,0,0.4,0.1,0.6,0.2
		c0.2,0.1,0.3,0.2,0.4,0.4c0.1,0.2,0.2,0.4,0.2,0.7v2.6c0,0.2,0,0.3,0,0.4c0,0.1,0.1,0.1,0.2,0.1l0.2,0L187.7,47.7L187.7,47.7z
		 M186.4,45.2l-0.3,0.1c-0.1,0-0.2,0.1-0.4,0.1c-0.1,0-0.3,0-0.4,0.1c-0.1,0-0.3,0-0.4,0.1c-0.1,0-0.3,0.1-0.4,0.1
		c-0.1,0-0.2,0.1-0.3,0.2L184,46c-0.1,0.1-0.1,0.2-0.1,0.4c0,0.1,0,0.2,0.1,0.3l0.2,0.2l0.3,0.1c0.1,0,0.2,0,0.4,0
		c0.3,0,0.5,0,0.7-0.1c0.2-0.1,0.4-0.2,0.5-0.3c0.1-0.1,0.2-0.2,0.3-0.4c0.1-0.1,0.1-0.3,0.1-0.4L186.4,45.2L186.4,45.2z"/>
	<polygon class="st1" points="188.5,40.9 189.3,40.9 189.3,47.7 188.5,47.7 	"/>
	<path class="st1" d="M197.7,47.7h-0.8v-0.7h0c-0.1,0.3-0.3,0.5-0.6,0.6c-0.3,0.1-0.6,0.2-1,0.2c-0.4,0-0.7-0.1-1-0.2
		c-0.3-0.1-0.5-0.3-0.7-0.6c-0.2-0.2-0.3-0.5-0.4-0.8c-0.1-0.3-0.1-0.7-0.1-1c0-0.3,0-0.7,0.1-1c0.1-0.3,0.2-0.6,0.4-0.8
		c0.2-0.2,0.4-0.4,0.7-0.6c0.3-0.1,0.6-0.2,1-0.2c0.1,0,0.3,0,0.4,0c0.1,0,0.3,0.1,0.4,0.1c0.1,0.1,0.3,0.1,0.4,0.2
		c0.1,0.1,0.2,0.2,0.3,0.4h0v-2.6h0.8L197.7,47.7L197.7,47.7z M193.8,45.3c0,0.2,0,0.5,0.1,0.7c0.1,0.2,0.2,0.4,0.3,0.6
		c0.1,0.2,0.3,0.3,0.5,0.4c0.2,0.1,0.4,0.2,0.7,0.2c0.3,0,0.5-0.1,0.7-0.2c0.2-0.1,0.4-0.3,0.5-0.4c0.1-0.2,0.2-0.4,0.3-0.6
		c0.1-0.2,0.1-0.4,0.1-0.7c0-0.2,0-0.5-0.1-0.7c-0.1-0.2-0.2-0.4-0.3-0.6c-0.1-0.2-0.3-0.3-0.5-0.4c-0.2-0.1-0.4-0.2-0.7-0.2
		c-0.3,0-0.5,0.1-0.7,0.2c-0.2,0.1-0.3,0.3-0.5,0.4c-0.1,0.2-0.2,0.4-0.3,0.6C193.9,44.8,193.8,45.1,193.8,45.3L193.8,45.3z"/>
	<path class="st1" d="M203.2,46.2c-0.1,0.6-0.4,1-0.7,1.3c-0.4,0.3-0.8,0.4-1.4,0.4c-0.4,0-0.7-0.1-1-0.2c-0.3-0.1-0.5-0.3-0.7-0.5
		c-0.2-0.2-0.3-0.5-0.4-0.8c-0.1-0.3-0.2-0.7-0.2-1c0-0.4,0.1-0.7,0.2-1c0.1-0.3,0.3-0.6,0.5-0.8c0.2-0.2,0.5-0.4,0.7-0.5
		c0.3-0.1,0.6-0.2,0.9-0.2c0.4,0,0.8,0.1,1.1,0.3c0.3,0.2,0.5,0.4,0.7,0.7c0.2,0.3,0.3,0.6,0.4,0.9c0.1,0.3,0.1,0.6,0.1,1h-3.7
		c0,0.2,0,0.4,0.1,0.6c0.1,0.2,0.1,0.4,0.3,0.5c0.1,0.2,0.3,0.3,0.5,0.4c0.2,0.1,0.4,0.1,0.7,0.1c0.3,0,0.6-0.1,0.8-0.2
		c0.2-0.2,0.4-0.4,0.4-0.7H203.2L203.2,46.2z M202.4,44.8c0-0.2-0.1-0.4-0.1-0.5c-0.1-0.2-0.2-0.3-0.3-0.4c-0.1-0.1-0.3-0.2-0.4-0.3
		c-0.2-0.1-0.4-0.1-0.6-0.1c-0.2,0-0.4,0-0.6,0.1c-0.2,0.1-0.3,0.2-0.4,0.3c-0.1,0.1-0.2,0.3-0.3,0.4c-0.1,0.2-0.1,0.3-0.1,0.5
		L202.4,44.8L202.4,44.8z"/>
	<polygon class="st1" points="206.9,40.9 207.8,40.9 207.8,47 211.5,47 211.5,47.7 206.9,47.7 	"/>
	<path class="st1" d="M216.3,47.7h-0.8V47h0c-0.2,0.3-0.4,0.5-0.7,0.7c-0.3,0.2-0.6,0.2-1,0.2c-0.3,0-0.6,0-0.8-0.1
		c-0.2-0.1-0.4-0.2-0.5-0.4c-0.1-0.2-0.2-0.4-0.3-0.6c-0.1-0.2-0.1-0.5-0.1-0.7v-3.3h0.8v3.4c0,0.3,0.1,0.6,0.3,0.7
		c0.2,0.2,0.4,0.3,0.7,0.3c0.3,0,0.5,0,0.6-0.1c0.2-0.1,0.3-0.2,0.5-0.3c0.1-0.1,0.2-0.3,0.3-0.5c0.1-0.2,0.1-0.4,0.1-0.6v-2.8h0.8
		V47.7L216.3,47.7z"/>
	<path class="st1" d="M218.3,48.4c0,0.4-0.1,0.8-0.3,1c-0.2,0.2-0.5,0.3-0.9,0.3l-0.2,0l-0.2,0v-0.7l0.2,0h0.2
		c0.2,0,0.3-0.1,0.4-0.1c0.1-0.1,0.1-0.3,0.1-0.5l0-5.5h0.8V48.4z M218.3,41.9h-0.8v-1h0.8V41.9z"/>
	<path class="st1" d="M224,47.7c-0.1,0.1-0.3,0.1-0.6,0.1c-0.2,0-0.4-0.1-0.5-0.2c-0.1-0.1-0.2-0.3-0.2-0.6
		c-0.2,0.3-0.5,0.5-0.8,0.6c-0.3,0.1-0.6,0.2-1,0.2c-0.2,0-0.4,0-0.6-0.1c-0.2-0.1-0.4-0.1-0.5-0.2c-0.1-0.1-0.3-0.3-0.4-0.4
		c-0.1-0.2-0.1-0.4-0.1-0.6c0-0.3,0-0.5,0.1-0.7c0.1-0.2,0.2-0.3,0.4-0.4c0.2-0.1,0.3-0.2,0.5-0.3c0.2-0.1,0.4-0.1,0.6-0.2
		c0.2,0,0.4-0.1,0.6-0.1c0.2,0,0.4-0.1,0.5-0.1c0.2,0,0.3-0.1,0.4-0.2c0.1-0.1,0.1-0.2,0.1-0.4c0-0.2,0-0.3-0.1-0.4l-0.3-0.2
		c-0.1-0.1-0.2-0.1-0.4-0.1c-0.1,0-0.3,0-0.4,0c-0.4,0-0.6,0.1-0.9,0.2c-0.2,0.1-0.3,0.4-0.4,0.7l-0.8,0c0-0.3,0.1-0.6,0.2-0.8
		c0.1-0.2,0.3-0.4,0.5-0.5c0.2-0.1,0.4-0.2,0.7-0.3c0.2-0.1,0.5-0.1,0.8-0.1c0.2,0,0.4,0,0.7,0c0.2,0,0.4,0.1,0.6,0.2
		c0.2,0.1,0.3,0.2,0.4,0.4c0.1,0.2,0.2,0.4,0.2,0.7v2.6c0,0.2,0,0.3,0,0.4c0,0.1,0.1,0.1,0.2,0.1l0.3,0V47.7L224,47.7z M222.7,45.2
		c-0.1,0.1-0.2,0.1-0.3,0.1c-0.1,0-0.2,0.1-0.4,0.1c-0.1,0-0.3,0-0.4,0.1c-0.1,0-0.3,0-0.4,0.1c-0.1,0-0.3,0.1-0.4,0.1
		c-0.1,0-0.2,0.1-0.3,0.2l-0.2,0.3c-0.1,0.1-0.1,0.2-0.1,0.4c0,0.1,0,0.2,0.1,0.3l0.2,0.2c0.1,0.1,0.2,0.1,0.3,0.1
		c0.1,0,0.2,0,0.4,0c0.3,0,0.5,0,0.7-0.1c0.2-0.1,0.3-0.2,0.5-0.3c0.1-0.1,0.2-0.2,0.3-0.4c0.1-0.1,0.1-0.3,0.1-0.4L222.7,45.2
		L222.7,45.2z M222.1,40.7h1l-1.3,1.4h-0.6L222.1,40.7z"/>
	<path class="st1" d="M224.8,42.8h0.8v0.8h0c0.2-0.3,0.4-0.5,0.7-0.7c0.3-0.2,0.6-0.2,1-0.2c0.3,0,0.6,0,0.8,0.1
		c0.2,0.1,0.4,0.2,0.5,0.4c0.1,0.2,0.2,0.4,0.3,0.6c0.1,0.2,0.1,0.5,0.1,0.7l0,3.3h-0.8v-3.4c0-0.3-0.1-0.5-0.3-0.7
		c-0.2-0.2-0.4-0.3-0.7-0.3c-0.2,0-0.5,0-0.7,0.1c-0.2,0.1-0.3,0.2-0.5,0.3c-0.1,0.1-0.2,0.3-0.3,0.5c-0.1,0.2-0.1,0.4-0.1,0.6
		l0,2.8h-0.8V42.8L224.8,42.8z"/>
	<g>
		<path class="st1" d="M21,1.3L2.8,11.8l0,21.6l24.8,14.4l18.2-10.5L41.9,35l-14.3,8.3l-9-5.2v-7.8l-6.8,3.9l0-17.2l15.4-8.9
			l6.7,3.9l-15.3,8.9l9,5.2l18.2-10.5L21,1.3z M5.6,30.6l0-17.2L21,4.5l3.4,2L9.1,15.4l0,17.2L5.6,30.6L5.6,30.6z M24.3,20.9
			l12.4-7.2l3.4,2l-12.4,7.2L24.3,20.9L24.3,20.9z"/>
		<polygon class="st0" points="27.6,43.3 18.6,38.2 18.6,20.9 27.6,26.2 		"/>
	</g>
</g>
</svg>
