<?xml version="1.0" encoding="utf-8"?>
<!-- Generator: Adobe Illustrator 24.0.2, SVG Export Plug-In . SVG Version: 6.00 Build 0)  -->
<svg version="1.1" id="Capa_1" xmlns="http://www.w3.org/2000/svg" xmlns:xlink="http://www.w3.org/1999/xlink" x="0px" y="0px"
	 viewBox="0 0 217 52" style="enable-background:new 0 0 217 52;" xml:space="preserve">
<style type="text/css">
	.st0{fill:#13A253;}
	.st1{fill:#282828;}
</style>
<g>
	<polygon class="st0" points="61.7,7.2 82.4,7.2 82.4,12.3 67.8,12.3 67.8,18.2 81.2,18.2 81.2,22.9 67.8,22.9 67.8,29.8 82.7,29.8 
		82.7,34.9 61.7,34.9 	"/>
	<path class="st1" d="M129,24.5c0,2.1-0.5,3.6-1.3,4.6c-0.8,1-2.4,1.5-4.5,1.5c-1.3,0-2.2-0.2-2.9-0.5c-0.7-0.4-1.3-0.8-1.7-1.4
		c-0.5-0.5-0.6-1.2-0.8-1.9c-0.1-0.7-0.2-1.5-0.2-2.2V7.3h-6.1v17.2c0,3.7,1,6.6,3.1,8.4c2.1,1.8,4.9,2.7,8.7,2.7
		c3.7,0,6.6-0.9,8.7-2.7c2.1-1.8,3.2-4.6,3.2-8.4V7.3H129L129,24.5L129,24.5z"/>
	<polygon class="st1" points="158,25.8 157.9,25.8 146.3,7.3 140.3,7.3 140.3,34.9 146,34.9 146,16.4 146.1,16.4 157.5,34.9 
		163.7,34.9 163.7,7.3 158,7.3 	"/>
	<polygon class="st1" points="175,7.3 169,7.3 169,34.9 188.5,34.9 188.5,29.8 175,29.8 	"/>
	<path class="st1" d="M207.8,10.2v13.5c0,2.6-0.5,4.3-1.3,5.4c-0.8,1.1-2.2,1.6-4,1.6c-1.5,0-2.7-0.5-3.4-1.5c-0.6-1-1-2.6-1-4.6
		V10.2h-6.2v15.1c0,1.5,0.1,2.9,0.4,4.2c0.3,1.3,0.7,2.3,1.4,3.2c0.6,0.9,1.5,1.5,2.7,2s2.6,0.7,4.5,0.7c1.2,0,2.3-0.2,3.5-0.6
		l0.3-0.1c1.4-0.6,2.7-1.9,3.3-3.3h0.2v3.5h5.8v-4.3V10.2H207.8L207.8,10.2z"/>
	<path class="st0" d="M100.6,32.3L100.6,32.3c-0.7,1.1-1.5,1.9-2.6,2.4c-1.1,0.5-2.3,0.7-3.6,0.7c-1.5,0-2.8-0.3-4-0.9
		c-1.1-0.6-2.1-1.4-2.8-2.4c-0.7-1-1.3-2.1-1.6-3.5c-0.4-1.3-0.5-2.6-0.5-4s0.2-2.6,0.5-3.9c0.4-1.3,0.9-2.4,1.6-3.3
		c0.7-0.9,1.6-1.7,2.7-2.3c1.1-0.5,2.4-0.9,3.9-0.9c1.2,0,2.3,0.3,3.4,0.7c1.1,0.5,1.9,1.3,2.6,2.3h0.1V7.2h6.1v27.7h-5.8
		L100.6,32.3L100.6,32.3z M100.5,24.8c0-0.8-0.1-1.5-0.3-2.4c-0.2-0.8-0.5-1.5-0.8-2c-0.4-0.5-0.8-1.1-1.5-1.5
		c-0.6-0.4-1.4-0.5-2.2-0.5c-0.9,0-1.6,0.2-2.3,0.5c-0.6,0.4-1.1,0.8-1.5,1.5c-0.4,0.6-0.6,1.3-0.8,2c-0.2,0.7-0.3,1.5-0.3,2.4
		c0,0.8,0.1,1.5,0.3,2.4c0.2,0.8,0.5,1.5,0.9,2.1c0.4,0.6,0.9,1.1,1.5,1.5c0.6,0.4,1.4,0.5,2.2,0.5c0.9,0,1.6-0.2,2.3-0.5
		c0.6-0.4,1.1-0.8,1.5-1.5c0.4-0.6,0.6-1.3,0.8-2.1C100.4,26.4,100.5,25.7,100.5,24.8L100.5,24.8z"/>
	<polygon class="st1" points="61.8,42.5 66.1,42.5 66.1,43.2 62.7,43.2 62.7,45.1 65.8,45.1 65.8,45.8 62.7,45.8 62.7,48 66.1,48 
		66.1,48.7 61.8,48.7 	"/>
	<path class="st1" d="M71,48.7h-0.7V48l0,0c-0.1,0.3-0.3,0.5-0.5,0.5s-0.5,0.2-0.9,0.2s-0.6-0.1-0.9-0.2c-0.3-0.1-0.5-0.3-0.6-0.5
		c-0.2-0.2-0.3-0.5-0.4-0.7c-0.1-0.3-0.1-0.6-0.1-0.9s0-0.6,0.1-0.9c0.1-0.3,0.2-0.5,0.4-0.7c0.2-0.2,0.4-0.4,0.6-0.5
		c0.3-0.1,0.5-0.2,0.9-0.2c0.1,0,0.3,0,0.4,0c0.1,0,0.3,0.1,0.4,0.1c0.1,0.1,0.3,0.1,0.4,0.2c0.1,0.1,0.2,0.2,0.3,0.4l0,0v-2.4H71
		V48.7L71,48.7z M67.6,46.5c0,0.2,0,0.5,0.1,0.6c0.1,0.2,0.2,0.4,0.3,0.5c0.1,0.2,0.3,0.3,0.5,0.4c0.2,0.1,0.4,0.2,0.6,0.2
		c0.3,0,0.5-0.1,0.6-0.2s0.4-0.3,0.5-0.4c0.1-0.2,0.2-0.4,0.3-0.5c0.1-0.2,0.1-0.4,0.1-0.6c0-0.2,0-0.5-0.1-0.6
		c-0.1-0.2-0.1-0.4-0.3-0.5c-0.1-0.2-0.3-0.3-0.5-0.4c-0.2-0.1-0.4-0.2-0.6-0.2s-0.5,0.1-0.6,0.2c-0.2,0.1-0.3,0.3-0.5,0.4
		c-0.1,0.2-0.2,0.4-0.2,0.5C67.6,46,67.6,46.3,67.6,46.5L67.6,46.5z"/>
	<path class="st1" d="M73,43.4h-0.7v-0.9H73V43.4z M72.2,44.2H73v4.6h-0.7V44.2z"/>
	<path class="st1" d="M75.2,44.2h0.9v0.6h-0.9v2.8v0.2l0.1,0.1l0.2,0.1c0.1,0,0.2,0,0.3,0h0.4v0.6h-0.5c-0.2,0-0.4,0-0.5,0
		c-0.2,0-0.3-0.1-0.4-0.2c-0.1-0.1-0.2-0.2-0.2-0.3s-0.1-0.3-0.1-0.5v-2.9h-0.7v-0.6h0.7v-1.4h0.7L75.2,44.2L75.2,44.2z"/>
	<path class="st1" d="M76.7,46.5c0-0.4,0.1-0.6,0.2-0.9c0.1-0.3,0.3-0.5,0.5-0.7c0.2-0.2,0.5-0.4,0.7-0.5c0.3-0.1,0.6-0.2,0.9-0.2
		c0.4,0,0.6,0.1,0.9,0.2c0.3,0.1,0.5,0.3,0.7,0.5c0.2,0.2,0.4,0.5,0.5,0.7c0.1,0.3,0.2,0.6,0.2,0.9c0,0.4-0.1,0.6-0.2,0.9
		c-0.1,0.3-0.3,0.5-0.5,0.7s-0.5,0.4-0.7,0.5c-0.3,0.1-0.5,0.2-0.9,0.2s-0.6-0.1-0.9-0.2c-0.3-0.1-0.5-0.3-0.7-0.5
		c-0.2-0.2-0.4-0.5-0.5-0.7C76.7,47.1,76.7,46.7,76.7,46.5L76.7,46.5z M77.4,46.5c0,0.3,0,0.5,0.1,0.7c0.1,0.2,0.2,0.4,0.3,0.5
		c0.1,0.2,0.3,0.3,0.5,0.4c0.2,0.1,0.4,0.1,0.5,0.1s0.4,0,0.5-0.1s0.4-0.2,0.5-0.4c0.1-0.2,0.3-0.4,0.3-0.5c0.1-0.2,0.1-0.5,0.1-0.7
		s0-0.5-0.1-0.7c-0.1-0.2-0.2-0.4-0.3-0.5s-0.3-0.3-0.5-0.4c-0.2-0.1-0.4-0.1-0.5-0.1s-0.4,0-0.5,0.1s-0.4,0.2-0.5,0.4
		c-0.1,0.2-0.2,0.4-0.3,0.5C77.5,45.9,77.4,46.2,77.4,46.5z"/>
	<path class="st1" d="M81.9,44.2h0.7v0.9l0,0c0.2-0.4,0.4-0.6,0.6-0.8s0.6-0.3,1-0.3v0.8c-0.3,0-0.5,0-0.7,0.1
		c-0.2,0.1-0.4,0.2-0.5,0.4c-0.1,0.2-0.2,0.4-0.3,0.5c-0.1,0.2-0.1,0.5-0.1,0.7v2h-0.7L81.9,44.2L81.9,44.2z"/>
	<path class="st1" d="M85.6,43.4h-0.7v-0.9h0.7V43.4z M84.9,44.2h0.7v4.6h-0.7V44.2z"/>
	<path class="st1" d="M90.8,48.7c-0.1,0.1-0.3,0.1-0.5,0.1c-0.2,0-0.4-0.1-0.5-0.2c-0.1-0.1-0.2-0.3-0.2-0.5
		c-0.2,0.3-0.5,0.5-0.7,0.5c-0.3,0.1-0.5,0.2-0.9,0.2c-0.2,0-0.4,0-0.5-0.1s-0.4-0.1-0.5-0.2c-0.1-0.1-0.3-0.3-0.3-0.4
		c-0.1-0.2-0.1-0.4-0.1-0.5c0-0.3,0-0.5,0.1-0.6c0.1-0.2,0.2-0.3,0.4-0.4c0.2-0.1,0.3-0.2,0.5-0.3s0.4-0.1,0.5-0.2
		c0.2,0,0.4-0.1,0.5-0.1s0.4-0.1,0.5-0.1c0.2,0,0.3-0.1,0.4-0.2c0.1-0.1,0.1-0.2,0.1-0.4c0-0.2,0-0.3-0.1-0.4l-0.2-0.2
		c-0.1-0.1-0.2-0.1-0.4-0.1c-0.1,0-0.3,0-0.4,0c-0.3,0-0.5,0.1-0.8,0.2c-0.2,0.1-0.4,0.4-0.4,0.6h-0.7c0-0.3,0.1-0.5,0.2-0.7
		c0.1-0.2,0.3-0.4,0.5-0.5s0.4-0.2,0.6-0.3s0.5-0.1,0.7-0.1c0.2,0,0.4,0,0.6,0c0.2,0,0.4,0.1,0.5,0.2c0.2,0.1,0.3,0.2,0.4,0.4
		c0.1,0.2,0.2,0.4,0.2,0.6v2.4c0,0.2,0,0.3,0,0.4c0,0.1,0.1,0.1,0.2,0.1h0.2L90.8,48.7L90.8,48.7z M89.6,46.4l-0.3,0.1
		c-0.1,0-0.2,0.1-0.4,0.1c-0.1,0-0.3,0-0.4,0.1c-0.1,0-0.3,0-0.4,0.1c-0.1,0-0.3,0.1-0.4,0.1c-0.1,0-0.2,0.1-0.3,0.2l-0.2,0.1
		c-0.1,0.1-0.1,0.2-0.1,0.4c0,0.1,0,0.2,0.1,0.3l0.2,0.2l0.3,0.1c0.1,0,0.2,0,0.4,0c0.3,0,0.5,0,0.6-0.1s0.4-0.2,0.5-0.3
		c0.1-0.1,0.2-0.2,0.3-0.4c0.1-0.1,0.1-0.3,0.1-0.4L89.6,46.4L89.6,46.4z"/>
	<polygon class="st1" points="91.5,42.5 92.3,42.5 92.3,48.7 91.5,48.7 	"/>
	<path class="st1" d="M101,46.5c0,0.8-0.2,1.4-0.6,1.8c-0.5,0.4-1,0.6-1.8,0.6c-0.4,0-0.7-0.1-1.1-0.2c-0.3-0.1-0.5-0.3-0.8-0.5
		c-0.2-0.2-0.4-0.5-0.5-0.7c-0.1-0.3-0.2-0.6-0.2-1.1v-4h0.8v4c0,0.5,0.2,1,0.5,1.3c0.3,0.3,0.7,0.5,1.3,0.5s0.9-0.2,1.2-0.5
		c0.3-0.3,0.5-0.7,0.5-1.3v-4h0.8L101,46.5L101,46.5z"/>
	<path class="st1" d="M102.2,44.2h0.7v0.7l0,0c0.2-0.3,0.4-0.5,0.6-0.6c0.3-0.2,0.5-0.2,0.8-0.2c0.3,0,0.5,0,0.7,0.1
		s0.4,0.2,0.5,0.4c0.1,0.2,0.2,0.4,0.3,0.5c0.1,0.2,0.1,0.5,0.1,0.6v3h-0.7v-3.1c0-0.3-0.1-0.5-0.3-0.6s-0.4-0.3-0.6-0.3
		s-0.5,0-0.5,0.1c-0.2,0.1-0.3,0.2-0.5,0.3c-0.1,0.1-0.2,0.3-0.3,0.5c-0.1,0.2-0.1,0.4-0.1,0.5v2.6h-0.7V44.2L102.2,44.2z"/>
	<path class="st1" d="M107.9,43.4h-0.7v-0.9h0.7V43.4z M107.1,44.2h0.7v4.6h-0.7V44.2z"/>
	<polygon class="st1" points="111.1,48.7 110.3,48.7 108.6,44.2 109.4,44.2 110.7,47.9 110.7,47.9 112,44.2 112.7,44.2 	"/>
	<path class="st1" d="M117.3,47.3c-0.1,0.5-0.4,0.9-0.6,1.2c-0.4,0.3-0.7,0.4-1.3,0.4c-0.4,0-0.6-0.1-0.9-0.2
		c-0.3-0.1-0.5-0.3-0.6-0.5c-0.2-0.2-0.3-0.5-0.4-0.7c-0.1-0.3-0.2-0.6-0.2-0.9c0-0.4,0.1-0.6,0.2-0.9c0.1-0.3,0.3-0.5,0.5-0.7
		c0.2-0.2,0.5-0.4,0.6-0.5c0.3-0.1,0.5-0.2,0.8-0.2c0.4,0,0.7,0.1,1,0.3c0.3,0.2,0.5,0.4,0.6,0.6c0.2,0.3,0.3,0.5,0.4,0.8
		c0.1,0.3,0.1,0.5,0.1,0.9h-3.4c0,0.2,0,0.4,0.1,0.5c0.1,0.2,0.2,0.4,0.3,0.5c0.1,0.2,0.3,0.3,0.5,0.4s0.4,0.1,0.6,0.1
		s0.5-0.1,0.7-0.2c0.2-0.2,0.4-0.4,0.4-0.6h0.6V47.3z M116.5,46c0-0.2-0.1-0.4-0.1-0.5c-0.1-0.2-0.2-0.3-0.3-0.4
		c-0.1-0.1-0.3-0.2-0.4-0.3c-0.2-0.1-0.4-0.1-0.5-0.1s-0.4,0-0.5,0.1s-0.3,0.2-0.4,0.3c-0.1,0.1-0.2,0.3-0.3,0.4
		c-0.1,0.2-0.1,0.3-0.1,0.5H116.5L116.5,46z"/>
	<path class="st1" d="M118.1,44.2h0.7v0.9l0,0c0.2-0.4,0.4-0.6,0.6-0.8s0.6-0.3,1-0.3v0.8c-0.3,0-0.5,0-0.7,0.1
		c-0.2,0.1-0.4,0.2-0.5,0.4c-0.1,0.2-0.2,0.4-0.3,0.5c-0.1,0.2-0.1,0.5-0.1,0.7v2h-0.7C118.1,48.6,118.1,44.2,118.1,44.2z"/>
	<path class="st1" d="M121.5,47.3c0,0.2,0,0.3,0.1,0.5c0.1,0.1,0.2,0.2,0.3,0.3c0.1,0.1,0.3,0.1,0.4,0.2c0.2,0,0.3,0.1,0.5,0.1
		c0.1,0,0.3,0,0.4,0c0.1,0,0.3-0.1,0.4-0.1l0.3-0.2c0.1-0.1,0.1-0.2,0.1-0.4s-0.1-0.3-0.1-0.4c-0.1-0.1-0.2-0.2-0.4-0.2
		c-0.2-0.1-0.3-0.1-0.5-0.2c-0.2,0-0.4-0.1-0.5-0.1c-0.2,0-0.4-0.1-0.5-0.2c-0.2-0.1-0.4-0.1-0.5-0.3c-0.1-0.1-0.3-0.2-0.4-0.4
		c-0.1-0.2-0.1-0.4-0.1-0.5s0.1-0.5,0.2-0.5c0.1-0.2,0.3-0.3,0.4-0.4c0.2-0.1,0.4-0.2,0.5-0.2c0.2-0.1,0.4-0.1,0.6-0.1
		c0.3,0,0.5,0,0.7,0.1c0.2,0,0.4,0.1,0.5,0.3c0.2,0.1,0.3,0.3,0.4,0.5c0.1,0.2,0.2,0.5,0.2,0.7h-0.7c0-0.2-0.1-0.3-0.1-0.4l-0.3-0.3
		c-0.1-0.1-0.2-0.1-0.4-0.1c-0.1,0-0.3,0-0.4,0c-0.1,0-0.2,0-0.4,0c-0.1,0-0.2,0-0.3,0.1l-0.3,0.2c-0.1,0.1-0.1,0.2-0.1,0.3
		s0,0.3,0.1,0.4c0.1,0.1,0.2,0.2,0.4,0.2c0.2,0.1,0.3,0.1,0.5,0.2c0.2,0,0.4,0.1,0.5,0.1c0.2,0,0.4,0.1,0.5,0.2
		c0.2,0.1,0.4,0.2,0.5,0.3c0.1,0.1,0.3,0.2,0.4,0.4c0.1,0.2,0.1,0.4,0.1,0.5c0,0.3-0.1,0.5-0.2,0.6c-0.1,0.2-0.3,0.4-0.5,0.5
		s-0.4,0.2-0.6,0.3c-0.3,0-0.5,0.1-0.7,0.1s-0.5,0-0.7-0.1c-0.2-0.1-0.5-0.2-0.6-0.3s-0.3-0.3-0.5-0.5c-0.1-0.2-0.2-0.5-0.2-0.7
		L121.5,47.3L121.5,47.3z"/>
	<path class="st1" d="M126.2,43.4h-0.7v-0.9h0.7V43.4z M125.5,44.2h0.7v4.6h-0.7V44.2z"/>
	<path class="st1" d="M131.4,48.7h-0.7V48l0,0c-0.1,0.3-0.3,0.5-0.5,0.5s-0.5,0.2-0.8,0.2c-0.4,0-0.6-0.1-0.9-0.2
		c-0.3-0.1-0.5-0.3-0.6-0.5c-0.2-0.2-0.3-0.5-0.4-0.7c-0.1-0.3-0.2-0.6-0.2-0.9s0-0.6,0.1-0.9c0.1-0.3,0.2-0.5,0.4-0.7
		s0.4-0.4,0.6-0.5c0.3-0.1,0.5-0.2,0.9-0.2c0.1,0,0.3,0,0.4,0c0.1,0,0.3,0.1,0.4,0.1c0.2,0.1,0.3,0.1,0.4,0.2
		c0.1,0.1,0.2,0.2,0.3,0.4l0,0v-2.4h0.7L131.4,48.7L131.4,48.7z M127.9,46.5c0,0.2,0,0.5,0.1,0.6s0.2,0.4,0.3,0.5
		c0.1,0.2,0.3,0.3,0.5,0.4c0.2,0.1,0.4,0.2,0.6,0.2s0.5-0.1,0.6-0.2c0.2-0.1,0.4-0.3,0.5-0.4c0.1-0.2,0.2-0.4,0.3-0.5
		c0.1-0.2,0.1-0.4,0.1-0.6c0-0.2,0-0.5-0.1-0.6c-0.1-0.2-0.2-0.4-0.3-0.5s-0.3-0.3-0.5-0.4c-0.2-0.1-0.4-0.2-0.6-0.2
		s-0.5,0.1-0.6,0.2c-0.2,0.1-0.3,0.3-0.5,0.4c-0.1,0.2-0.2,0.4-0.2,0.5C127.9,46,127.9,46.3,127.9,46.5L127.9,46.5z"/>
	<path class="st1" d="M136.6,48.7c-0.1,0.1-0.3,0.1-0.5,0.1c-0.2,0-0.4-0.1-0.5-0.2c-0.1-0.1-0.2-0.3-0.2-0.5
		c-0.2,0.3-0.5,0.5-0.7,0.5s-0.5,0.2-0.9,0.2c-0.2,0-0.4,0-0.5-0.1c-0.2-0.1-0.4-0.1-0.5-0.2c-0.1-0.1-0.3-0.3-0.3-0.4
		c-0.1-0.2-0.1-0.4-0.1-0.5c0-0.3,0.1-0.5,0.1-0.6c0.1-0.2,0.2-0.3,0.4-0.4c0.2-0.1,0.3-0.2,0.5-0.3c0.2-0.1,0.4-0.1,0.5-0.2
		c0.2,0,0.4-0.1,0.5-0.1s0.4-0.1,0.5-0.1c0.2,0,0.3-0.1,0.4-0.2c0.1-0.1,0.1-0.2,0.1-0.4c0-0.2,0-0.3-0.1-0.4l-0.3-0.2
		c-0.1-0.1-0.2-0.1-0.4-0.1c-0.1,0-0.3,0-0.4,0c-0.3,0-0.5,0.1-0.8,0.2c-0.2,0.1-0.4,0.4-0.4,0.6h-0.7c0-0.3,0.1-0.5,0.2-0.7
		c0.1-0.2,0.3-0.4,0.5-0.5c0.2-0.1,0.4-0.2,0.6-0.3s0.5-0.1,0.7-0.1c0.2,0,0.5,0,0.6,0c0.2,0,0.4,0.1,0.5,0.2
		c0.2,0.1,0.3,0.2,0.4,0.4c0.1,0.2,0.2,0.4,0.2,0.6v2.4c0,0.2,0,0.3,0,0.4s0.1,0.1,0.2,0.1h0.3L136.6,48.7L136.6,48.7z M135.4,46.4
		c-0.1,0.1-0.2,0.1-0.3,0.1s-0.2,0.1-0.4,0.1c-0.1,0-0.3,0-0.4,0.1c-0.1,0-0.3,0-0.4,0.1c-0.1,0-0.3,0.1-0.4,0.1
		c-0.1,0-0.2,0.1-0.3,0.2l-0.2,0.3c-0.1,0.1-0.1,0.2-0.1,0.4c0,0.1,0,0.2,0.1,0.3l0.2,0.2l0.3,0.1c0.1,0,0.2,0,0.4,0
		c0.3,0,0.5,0,0.6-0.1c0.2-0.1,0.3-0.2,0.5-0.3c0.1-0.1,0.2-0.2,0.3-0.4c0.1-0.1,0.1-0.3,0.1-0.4L135.4,46.4L135.4,46.4z"/>
	<path class="st1" d="M141.3,48.7h-0.7V48l0,0c-0.1,0.3-0.3,0.5-0.5,0.5c-0.3,0.1-0.5,0.2-0.9,0.2s-0.6-0.1-0.9-0.2
		c-0.3-0.1-0.5-0.3-0.6-0.5c-0.2-0.2-0.3-0.5-0.4-0.7c-0.1-0.3-0.1-0.6-0.1-0.9s0-0.6,0.1-0.9c0.1-0.3,0.2-0.5,0.4-0.7
		c0.2-0.2,0.4-0.4,0.6-0.5c0.3-0.1,0.5-0.2,0.9-0.2c0.1,0,0.3,0,0.4,0c0.1,0,0.3,0.1,0.4,0.1c0.1,0.1,0.3,0.1,0.4,0.2
		c0.1,0.1,0.2,0.2,0.3,0.4l0,0v-2.4h0.7L141.3,48.7L141.3,48.7z M137.9,46.5c0,0.2,0,0.5,0.1,0.6c0.1,0.2,0.2,0.4,0.3,0.5
		c0.1,0.2,0.3,0.3,0.5,0.4c0.2,0.1,0.4,0.2,0.6,0.2c0.3,0,0.5-0.1,0.6-0.2c0.2-0.1,0.4-0.3,0.5-0.4c0.1-0.2,0.2-0.4,0.3-0.5
		c0.1-0.2,0.1-0.4,0.1-0.6c0-0.2,0-0.5-0.1-0.6s-0.2-0.4-0.3-0.5s-0.3-0.3-0.5-0.4c-0.2-0.1-0.4-0.2-0.6-0.2c-0.3,0-0.5,0.1-0.6,0.2
		c-0.2,0.1-0.3,0.3-0.5,0.4c-0.1,0.2-0.2,0.4-0.2,0.5C137.9,46,137.9,46.3,137.9,46.5L137.9,46.5z"/>
	<polygon class="st1" points="145.1,42.5 145.9,42.5 149.2,47.6 149.3,47.6 149.3,42.5 150,42.5 150,48.7 149.1,48.7 145.8,43.6 
		145.8,43.6 145.8,48.7 145.1,48.7 	"/>
	<path class="st1" d="M155.3,48.7c-0.1,0.1-0.3,0.1-0.5,0.1c-0.2,0-0.4-0.1-0.5-0.2c-0.1-0.1-0.2-0.3-0.2-0.5
		c-0.2,0.3-0.5,0.5-0.7,0.5c-0.3,0.1-0.5,0.2-0.9,0.2c-0.2,0-0.4,0-0.5-0.1s-0.4-0.1-0.5-0.2c-0.1-0.1-0.3-0.3-0.3-0.4
		c-0.1-0.2-0.1-0.4-0.1-0.5c0-0.3,0.1-0.5,0.1-0.6c0.1-0.2,0.2-0.3,0.4-0.4c0.2-0.1,0.3-0.2,0.5-0.3c0.2-0.1,0.4-0.1,0.5-0.2
		c0.2,0,0.4-0.1,0.5-0.1s0.4-0.1,0.5-0.1c0.2,0,0.3-0.1,0.4-0.2c0.1-0.1,0.1-0.2,0.1-0.4c0-0.2,0-0.3-0.1-0.4l-0.3-0.2
		c-0.1-0.1-0.2-0.1-0.4-0.1c-0.1,0-0.3,0-0.4,0c-0.3,0-0.5,0.1-0.8,0.2c-0.2,0.1-0.4,0.4-0.4,0.6H151c0-0.3,0.1-0.5,0.2-0.7
		c0.1-0.2,0.3-0.4,0.5-0.5c0.2-0.1,0.4-0.2,0.6-0.3c0.2-0.1,0.5-0.1,0.7-0.1c0.2,0,0.5,0,0.6,0c0.2,0,0.4,0.1,0.5,0.2
		c0.2,0.1,0.3,0.2,0.4,0.4c0.1,0.2,0.2,0.4,0.2,0.6v2.4c0,0.2,0,0.3,0,0.4s0.1,0.1,0.2,0.1h0.2v0.6H155.3z M154,46.4l-0.3,0.1
		c-0.1,0-0.2,0.1-0.4,0.1c-0.1,0-0.3,0-0.4,0.1c-0.1,0-0.3,0-0.4,0.1c-0.1,0-0.3,0.1-0.4,0.1c-0.1,0-0.2,0.1-0.3,0.2l-0.2,0.3
		c-0.1,0.1-0.1,0.2-0.1,0.4c0,0.1,0,0.2,0.1,0.3l0.2,0.2l0.3,0.1c0.1,0,0.2,0,0.4,0c0.3,0,0.5,0,0.6-0.1c0.2-0.1,0.3-0.2,0.5-0.3
		c0.1-0.1,0.2-0.2,0.3-0.4c0.1-0.1,0.1-0.3,0.1-0.4L154,46.4L154,46.4z"/>
	<path class="st1" d="M159,45.6c-0.1-0.3-0.2-0.5-0.4-0.6c-0.2-0.2-0.5-0.3-0.7-0.3c-0.3,0-0.5,0.1-0.6,0.2
		c-0.2,0.1-0.4,0.3-0.5,0.4c-0.1,0.2-0.2,0.4-0.3,0.5c0,0.2-0.1,0.5-0.1,0.6s0,0.5,0.1,0.6s0.1,0.4,0.3,0.5c0.1,0.2,0.3,0.3,0.4,0.4
		c0.2,0.1,0.4,0.2,0.6,0.2c0.4,0,0.6-0.1,0.8-0.3c0.2-0.2,0.4-0.5,0.4-0.8h0.7c-0.1,0.5-0.3,1-0.6,1.3c-0.4,0.3-0.8,0.5-1.4,0.5
		c-0.4,0-0.6-0.1-0.9-0.2c-0.3-0.1-0.5-0.3-0.6-0.5c-0.2-0.2-0.3-0.5-0.4-0.7c-0.1-0.3-0.1-0.6-0.1-0.9c0-0.4,0-0.6,0.1-0.9
		s0.2-0.5,0.4-0.7c0.2-0.2,0.4-0.4,0.6-0.5c0.3-0.1,0.5-0.2,0.9-0.2c0.3,0,0.5,0,0.7,0.1c0.2,0.1,0.5,0.2,0.6,0.3
		c0.2,0.1,0.3,0.3,0.5,0.5c0.1,0.2,0.2,0.5,0.2,0.7L159,45.6L159,45.6z"/>
	<path class="st1" d="M161.5,43.4h-0.7v-0.9h0.7V43.4z M160.6,44.2h0.7v4.6h-0.7V44.2z"/>
	<path class="st1" d="M162.4,46.5c0-0.4,0-0.6,0.1-0.9s0.3-0.5,0.5-0.7c0.2-0.2,0.5-0.4,0.7-0.5c0.3-0.1,0.5-0.2,0.9-0.2
		s0.6,0.1,0.9,0.2c0.3,0.1,0.5,0.3,0.7,0.5c0.2,0.2,0.4,0.5,0.5,0.7s0.2,0.6,0.2,0.9c0,0.4-0.1,0.6-0.2,0.9
		c-0.1,0.3-0.3,0.5-0.5,0.7c-0.2,0.2-0.4,0.4-0.7,0.5c-0.3,0.1-0.5,0.2-0.9,0.2s-0.6-0.1-0.9-0.2c-0.3-0.1-0.5-0.3-0.7-0.5
		c-0.2-0.2-0.4-0.5-0.5-0.7S162.4,46.7,162.4,46.5z M163.1,46.5c0,0.3,0,0.5,0.1,0.7s0.2,0.4,0.3,0.5c0.1,0.2,0.3,0.3,0.5,0.4
		c0.2,0.1,0.4,0.1,0.5,0.1s0.4,0,0.5-0.1c0.2-0.1,0.4-0.2,0.5-0.4s0.2-0.4,0.3-0.5c0.1-0.2,0.1-0.5,0.1-0.7s0-0.5-0.1-0.7
		c-0.1-0.2-0.2-0.4-0.3-0.5s-0.3-0.3-0.5-0.4c-0.2-0.1-0.4-0.1-0.5-0.1c-0.2,0-0.4,0-0.5,0.1s-0.4,0.2-0.5,0.4
		c-0.1,0.2-0.2,0.4-0.3,0.5C163.2,45.9,163.1,46.2,163.1,46.5z"/>
	<path class="st1" d="M167.6,44.2h0.7v0.7l0,0c0.2-0.3,0.4-0.5,0.6-0.6s0.5-0.2,0.8-0.2c0.3,0,0.5,0,0.7,0.1
		c0.2,0.1,0.4,0.2,0.5,0.4c0.1,0.2,0.2,0.4,0.3,0.5c0.1,0.2,0.1,0.5,0.1,0.6v3h-0.7v-3.1c0-0.3-0.1-0.5-0.3-0.6
		c-0.2-0.2-0.4-0.3-0.6-0.3s-0.5,0-0.6,0.1c-0.2,0.1-0.3,0.2-0.5,0.3c-0.1,0.1-0.2,0.3-0.3,0.5c-0.1,0.2-0.1,0.4-0.1,0.5v2.6h-0.7
		L167.6,44.2L167.6,44.2z"/>
	<path class="st1" d="M176.5,48.7c-0.1,0.1-0.3,0.1-0.5,0.1c-0.2,0-0.4-0.1-0.5-0.2c-0.1-0.1-0.2-0.3-0.2-0.5
		c-0.2,0.3-0.5,0.5-0.7,0.5c-0.3,0.1-0.5,0.2-0.9,0.2c-0.2,0-0.4,0-0.5-0.1c-0.2-0.1-0.4-0.1-0.5-0.2c-0.1-0.1-0.3-0.3-0.3-0.4
		c-0.1-0.2-0.1-0.4-0.1-0.5c0-0.3,0-0.5,0.1-0.6c0.1-0.2,0.2-0.3,0.4-0.4c0.2-0.1,0.3-0.2,0.5-0.3c0.2-0.1,0.4-0.1,0.5-0.2
		c0.2,0,0.4-0.1,0.5-0.1c0.2,0,0.4-0.1,0.5-0.1c0.2,0,0.3-0.1,0.4-0.2c0.1-0.1,0.1-0.2,0.1-0.4c0-0.2,0-0.3-0.1-0.4l-0.3-0.2
		c-0.1-0.1-0.2-0.1-0.4-0.1c-0.1,0-0.3,0-0.4,0c-0.3,0-0.5,0.1-0.8,0.2c-0.2,0.1-0.4,0.4-0.4,0.6h-0.7c0-0.3,0.1-0.5,0.2-0.7
		c0.1-0.2,0.3-0.4,0.5-0.5c0.2-0.1,0.4-0.2,0.6-0.3c0.2-0.1,0.5-0.1,0.7-0.1c0.2,0,0.4,0,0.6,0c0.2,0,0.4,0.1,0.5,0.2
		c0.2,0.1,0.3,0.2,0.4,0.4c0.1,0.2,0.2,0.4,0.2,0.6v2.4c0,0.2,0,0.3,0,0.4s0.1,0.1,0.2,0.1h0.2L176.5,48.7L176.5,48.7z M175.3,46.4
		l-0.3,0.1c-0.1,0-0.2,0.1-0.4,0.1c-0.1,0-0.3,0-0.4,0.1c-0.1,0-0.3,0-0.4,0.1c-0.1,0-0.3,0.1-0.4,0.1s-0.2,0.1-0.3,0.2l-0.2,0.1
		c-0.1,0.1-0.1,0.2-0.1,0.4c0,0.1,0,0.2,0.1,0.3l0.2,0.2l0.3,0.1c0.1,0,0.2,0,0.4,0c0.3,0,0.5,0,0.6-0.1c0.2-0.1,0.4-0.2,0.5-0.3
		c0.1-0.1,0.2-0.2,0.3-0.4c0.1-0.1,0.1-0.3,0.1-0.4L175.3,46.4L175.3,46.4z"/>
	<polygon class="st1" points="177.2,42.5 178,42.5 178,48.7 177.2,48.7 	"/>
	<path class="st1" d="M185.6,48.7h-0.7V48l0,0c-0.1,0.3-0.3,0.5-0.5,0.5c-0.3,0.1-0.5,0.2-0.9,0.2s-0.6-0.1-0.9-0.2
		c-0.3-0.1-0.5-0.3-0.6-0.5c-0.2-0.2-0.3-0.5-0.4-0.7c-0.1-0.3-0.1-0.6-0.1-0.9s0-0.6,0.1-0.9c0.1-0.3,0.2-0.5,0.4-0.7
		c0.2-0.2,0.4-0.4,0.6-0.5c0.3-0.1,0.5-0.2,0.9-0.2c0.1,0,0.3,0,0.4,0c0.1,0,0.3,0.1,0.4,0.1c0.1,0.1,0.3,0.1,0.4,0.2
		c0.1,0.1,0.2,0.2,0.3,0.4l0,0v-2.4h0.7L185.6,48.7L185.6,48.7z M182.1,46.5c0,0.2,0,0.5,0.1,0.6c0.1,0.2,0.2,0.4,0.3,0.5
		c0.1,0.2,0.3,0.3,0.5,0.4c0.2,0.1,0.4,0.2,0.6,0.2s0.5-0.1,0.6-0.2c0.2-0.1,0.4-0.3,0.5-0.4c0.1-0.2,0.2-0.4,0.3-0.5
		c0.1-0.2,0.1-0.4,0.1-0.6c0-0.2,0-0.5-0.1-0.6c-0.1-0.2-0.2-0.4-0.3-0.5s-0.3-0.3-0.5-0.4c-0.2-0.1-0.4-0.2-0.6-0.2
		s-0.5,0.1-0.6,0.2c-0.2,0.1-0.3,0.3-0.5,0.4c-0.1,0.2-0.2,0.4-0.3,0.5C182.2,46,182.1,46.3,182.1,46.5L182.1,46.5z"/>
	<path class="st1" d="M190.6,47.3c-0.1,0.5-0.4,0.9-0.6,1.2c-0.4,0.3-0.7,0.4-1.3,0.4c-0.4,0-0.6-0.1-0.9-0.2
		c-0.3-0.1-0.5-0.3-0.6-0.5c-0.2-0.2-0.3-0.5-0.4-0.7c-0.1-0.3-0.2-0.6-0.2-0.9c0-0.4,0.1-0.6,0.2-0.9s0.3-0.5,0.5-0.7
		c0.2-0.2,0.5-0.4,0.6-0.5c0.3-0.1,0.5-0.2,0.8-0.2c0.4,0,0.7,0.1,1,0.3c0.3,0.2,0.5,0.4,0.6,0.6c0.2,0.3,0.3,0.5,0.4,0.8
		c0.1,0.3,0.1,0.5,0.1,0.9h-3.4c0,0.2,0,0.4,0.1,0.5c0.1,0.2,0.1,0.4,0.3,0.5c0.1,0.2,0.3,0.3,0.5,0.4c0.2,0.1,0.4,0.1,0.6,0.1
		s0.5-0.1,0.7-0.2c0.2-0.2,0.4-0.4,0.4-0.6h0.6V47.3z M189.9,46c0-0.2-0.1-0.4-0.1-0.5c-0.1-0.2-0.2-0.3-0.3-0.4s-0.3-0.2-0.4-0.3
		c-0.2-0.1-0.4-0.1-0.5-0.1s-0.4,0-0.5,0.1c-0.2,0.1-0.3,0.2-0.4,0.3s-0.2,0.3-0.3,0.4c-0.1,0.2-0.1,0.3-0.1,0.5H189.9L189.9,46z"/>
	<polygon class="st1" points="194,42.5 194.8,42.5 194.8,48 198.2,48 198.2,48.7 194,48.7 	"/>
	<path class="st1" d="M202.6,48.7h-0.7V48l0,0c-0.2,0.3-0.4,0.5-0.6,0.6s-0.5,0.2-0.9,0.2c-0.3,0-0.5,0-0.7-0.1
		c-0.2-0.1-0.4-0.2-0.5-0.4c-0.1-0.2-0.2-0.4-0.3-0.5c-0.1-0.2-0.1-0.5-0.1-0.6v-3h0.7v3.1c0,0.3,0.1,0.5,0.3,0.6
		c0.2,0.2,0.4,0.3,0.6,0.3s0.5,0,0.5-0.1c0.2-0.1,0.3-0.2,0.5-0.3c0.1-0.1,0.2-0.3,0.3-0.5s0.1-0.4,0.1-0.5v-2.6h0.7L202.6,48.7
		L202.6,48.7z"/>
	<path class="st1" d="M204.4,49.3c0,0.4-0.1,0.7-0.3,0.9c-0.2,0.2-0.5,0.3-0.8,0.3h-0.2h-0.2v-0.6h0.2h0.2c0.2,0,0.3-0.1,0.4-0.1
		c0.1-0.1,0.1-0.3,0.1-0.5v-5h0.7L204.4,49.3L204.4,49.3z M204.4,43.4h-0.7v-0.9h0.7V43.4z"/>
	<path class="st1" d="M209.6,48.7c-0.1,0.1-0.3,0.1-0.5,0.1c-0.2,0-0.4-0.1-0.5-0.2c-0.1-0.1-0.2-0.3-0.2-0.5
		c-0.2,0.3-0.5,0.5-0.7,0.5c-0.3,0.1-0.5,0.2-0.9,0.2c-0.2,0-0.4,0-0.5-0.1s-0.4-0.1-0.5-0.2c-0.1-0.1-0.3-0.3-0.4-0.4
		c-0.1-0.2-0.1-0.4-0.1-0.5c0-0.3,0-0.5,0.1-0.6s0.2-0.3,0.4-0.4c0.2-0.1,0.3-0.2,0.5-0.3c0.2-0.1,0.4-0.1,0.5-0.2
		c0.2,0,0.4-0.1,0.5-0.1s0.4-0.1,0.5-0.1c0.2,0,0.3-0.1,0.4-0.2c0.1-0.1,0.1-0.2,0.1-0.4c0-0.2,0-0.3-0.1-0.4l-0.3-0.2
		c-0.1-0.1-0.2-0.1-0.4-0.1c-0.1,0-0.3,0-0.4,0c-0.4,0-0.5,0.1-0.8,0.2c-0.2,0.1-0.3,0.4-0.4,0.6h-0.7c0-0.3,0.1-0.5,0.2-0.7
		c0.1-0.2,0.3-0.4,0.5-0.5c0.2-0.1,0.4-0.2,0.6-0.3c0.2-0.1,0.5-0.1,0.7-0.1c0.2,0,0.4,0,0.6,0c0.2,0,0.4,0.1,0.5,0.2
		c0.2,0.1,0.3,0.2,0.4,0.4c0.1,0.2,0.2,0.4,0.2,0.6v2.4c0,0.2,0,0.3,0,0.4s0.1,0.1,0.2,0.1h0.3v0.6H209.6z M208.4,46.4
		c-0.1,0.1-0.2,0.1-0.3,0.1c-0.1,0-0.2,0.1-0.4,0.1c-0.1,0-0.3,0-0.4,0.1c-0.1,0-0.3,0-0.4,0.1c-0.1,0-0.3,0.1-0.4,0.1
		c-0.1,0-0.2,0.1-0.3,0.2l-0.2,0.3c-0.1,0.1-0.1,0.2-0.1,0.4c0,0.1,0,0.2,0.1,0.3l0.2,0.2c0.1,0.1,0.2,0.1,0.3,0.1
		c0.1,0,0.2,0,0.4,0c0.3,0,0.5,0,0.6-0.1c0.2-0.1,0.3-0.2,0.5-0.3c0.1-0.1,0.2-0.2,0.3-0.4c0.1-0.1,0.1-0.3,0.1-0.4L208.4,46.4
		L208.4,46.4z M207.9,42.3h0.9l-1.2,1.3H207L207.9,42.3z"/>
	<path class="st1" d="M210.3,44.2h0.7v0.7l0,0c0.2-0.3,0.4-0.5,0.6-0.6s0.5-0.2,0.9-0.2c0.3,0,0.5,0,0.7,0.1
		c0.2,0.1,0.4,0.2,0.5,0.4c0.1,0.2,0.2,0.4,0.3,0.5c0.1,0.2,0.1,0.5,0.1,0.6v3h-0.7v-3.1c0-0.3-0.1-0.5-0.3-0.6
		c-0.2-0.2-0.4-0.3-0.6-0.3c-0.2,0-0.5,0-0.6,0.1c-0.2,0.1-0.3,0.2-0.5,0.3c-0.1,0.1-0.2,0.3-0.3,0.5c-0.1,0.2-0.1,0.4-0.1,0.5v2.6
		h-0.7V44.2L210.3,44.2z"/>
</g>
<g>
	<path class="st1" d="M21,2.2L2.8,12.7v21.6l24.8,14.4l18.2-10.5l-3.9-2.3l-14.3,8.3l-9-5.2v-7.8l-6.8,3.9V17.9L27.2,9l6.7,3.9
		l-15.3,8.9l9,5.2l18.2-10.5L21,2.2z M5.6,31.5V14.3L21,5.4l3.4,2L9.1,16.3v17.2L5.6,31.5L5.6,31.5z M24.3,21.8l12.4-7.2l3.4,2
		l-12.4,7.2L24.3,21.8L24.3,21.8z"/>
	<polygon class="st0" points="27.6,44.2 18.6,39.1 18.6,21.8 27.6,27.1 	"/>
</g>
</svg>
